Coordinates
version=1
nRows=11
nColumns=45
inDegrees=yes

Units are S.I. units (second, meters, Newtons, ...)
If the header above contains a line with 'inDegrees', this indicates whether rotational values are in degrees (yes) or radians (no).

endheader
time	HipInputX	HipInputY	HipInputZ	TranslationInputX	TranslationInputY	TranslationInputZ	SpineInputX	SpineInputY	TorsoInput	LEInput	LFInput	LScapInputX	LScapInputY	LSInputX	LSInputY	LSInputZ	LWInputX	LWInputY	REInput	RFInput	RScapInputX	RScapInputY	RSInputX	RSInputY	RSInputZ	RWInputX	RWInputY	NeckInputX	NeckInputY	NeckInputZ	hip_flexion_r	hip_adduction_r	hip_rotation_r	knee_angle_r	ankle_angle_r	subtalar_angle_r	mtp_angle_r	hip_flexion_l	hip_adduction_l	hip_rotation_l	knee_angle_l	ankle_angle_l	subtalar_angle_l	mtp_angle_l
      0.00000000	    -88.61005578	    -11.36523863	   -177.19328985	      1.08936379	      0.81125482	     -0.04519107	      4.07215454	     15.18703985	     10.43510519	    -58.98520183	     54.94828458	     20.37929030	     -0.91199749	   -101.22362385	     -5.91195199	   -267.21577241	    102.28733205	     -8.69041025	   -109.76139724	   -161.68345240	     -5.22077319	    -21.32248023	     57.58038502	     40.42827748	    -89.15593628	    141.72314465	     20.48068389	     13.36681126	      0.03124659	    -14.72033911	     92.63005324	   -167.62651157	     71.09838686	     14.45182949	    -68.03143034	      0.00000000	      0.00000000	     95.88263145	     -5.11248661	     71.17195425	     29.87040059	   -776.51705194	      0.00000000	      0.00000000
      0.00277778	    -88.60961671	    -11.36507240	   -177.19396340	      1.08939817	      0.81123977	     -0.04521105	      4.07153465	     15.18723396	     10.43447759	    -58.98459832	     54.94876159	     20.37900826	     -0.91236950	   -101.22379596	     -5.91212401	   -267.21571635	    102.28757989	     -8.69081938	   -109.76166359	   -161.68309199	     -5.22115396	    -21.32305067	     57.58007159	     40.42893034	    -89.15617319	    141.72343303	     20.48095990	     13.36679409	      0.03131308	    -14.72047170	     92.62995965	   -167.62645140	     71.09851476	     14.45179169	    -68.03134592	      0.00000000	      0.00000000	     95.88269487	     -5.11243015	     71.17191259	     29.87046301	   -776.51698669	      0.00000000	      0.00000000
      0.00555556	    -88.60942743	    -11.36441898	   -177.19446733	      1.08942851	      0.81123498	     -0.04522938	      4.07096205	     15.18693889	     10.43393413	    -58.98414824	     54.94906204	     20.37871321	     -0.91263796	   -101.22394210	     -5.91222925	   -267.21583623	    102.28774765	     -8.69109628	   -109.76188176	   -161.68287098	     -5.22154046	    -21.32349054	     57.57975898	     40.42930528	    -89.15630205	    141.72361158	     20.48116262	     13.36677444	      0.03131565	    -14.72054468	     92.62996325	   -167.62638741	     71.09862908	     14.45180767	    -68.03129664	      0.00000000	      0.00000000	     95.88273266	     -5.11237860	     71.17180293	     29.87048990	   -776.51695036	      0.00000000	      0.00000000
      0.00833333	    -88.60930859	    -11.36358285	   -177.19490981	      1.08944756	      0.81122289	     -0.04524781	      4.07035319	     15.18652580	     10.43341067	    -58.98369552	     54.94929001	     20.37837708	     -0.91288914	   -101.22407643	     -5.91228163	   -267.21611778	    102.28784246	     -8.69131112	   -109.76209824	   -161.68272550	     -5.22197155	    -21.32390176	     57.57936757	     40.42952021	    -89.15638950	    141.72371417	     20.48132219	     13.36673435	      0.03132867	    -14.72061328	     92.63004516	   -167.62629528	     71.09873870	     14.45186036	    -68.03124513	      0.00000000	      0.00000000	     95.88281347	     -5.11233396	     71.17165146	     29.87052794	   -776.51691420	      0.00000000	      0.00000000
      0.01111111	    -88.60944381	    -11.36159107	   -177.19489920	      1.08948497	      0.81120091	     -0.04525822	      4.06891709	     15.18607124	     10.43308372	    -58.98300342	     54.94985777	     20.37773918	     -0.91321242	   -101.22423328	     -5.91246305	   -267.21643059	    102.28808266	     -8.69165223	   -109.76240120	   -161.68240381	     -5.22282553	    -21.32441704	     57.57876784	     40.43005585	    -89.15639862	    141.72393183	     20.48161899	     13.36660083	      0.03137754	    -14.72078767	     92.63051521	   -167.62594216	     71.09914107	     14.45212989	    -68.03111810	      0.00000000	      0.00000000	     95.88319828	     -5.11224600	     71.17105243	     29.87070568	   -776.51682340	      0.00000000	      0.00000000
      0.01388889	    -88.60974892	    -11.35998173	   -177.19539865	      1.08949973	      0.81118409	     -0.04527626	      4.06743091	     15.18538473	     10.43219364	    -58.98199723	     54.95024749	     20.37690558	     -0.91368605	   -101.22443526	     -5.91248796	   -267.21738207	    102.28815720	     -8.69205506	   -109.76281843	   -161.68220614	     -5.22391590	    -21.32515903	     57.57770603	     40.43016910	    -89.15647502	    141.72403030	     20.48183335	     13.36647911	      0.03146180	    -14.72096210	     92.63082420	   -167.62562378	     71.09964988	     14.45234291	    -68.03101053	      0.00000000	      0.00000000	     95.88344908	     -5.11209641	     71.17034573	     29.87081331	   -776.51674331	      0.00000000	      0.00000000
      0.01666667	    -88.60981463	    -11.35964753	   -177.19564394	      1.08952938	      0.81116953	     -0.04529696	      4.06687293	     15.18552119	     10.43180210	    -58.98148381	     54.95063427	     20.37652245	     -0.91393737	   -101.22453300	     -5.91261462	   -267.21745599	    102.28841189	     -8.69243446	   -109.76301799	   -161.68190787	     -5.22439063	    -21.32553736	     57.57733023	     40.43064064	    -89.15657626	    141.72428501	     20.48202647	     13.36642441	      0.03148813	    -14.72103582	     92.63093158	   -167.62550587	     71.09982139	     14.45242887	    -68.03096722	      0.00000000	      0.00000000	     95.88352164	     -5.11203120	     71.17009463	     29.87085328	   -776.51671044	      0.00000000	      0.00000000
      0.01944444	    -88.61024550	    -11.35746866	   -177.19614574	      1.08956335	      0.81114957	     -0.04530765	      4.06478081	     15.18457059	     10.43070673	    -58.98016571	     54.95109609	     20.37539728	     -0.91452438	   -101.22477252	     -5.91261888	   -267.21872640	    102.28852792	     -8.69302294	   -109.76355349	   -161.68164084	     -5.22581352	    -21.32644873	     57.57589271	     40.43072419	    -89.15666651	    141.72443778	     20.48226899	     13.36621556	      0.03156288	    -14.72122448	     92.63134555	   -167.62508565	     71.10055434	     14.45274769	    -68.03085695	      0.00000000	      0.00000000	     95.88379437	     -5.11181222	     71.16905467	     29.87097889	   -776.51663379	      0.00000000	      0.00000000
      0.02222222	    -88.61074204	    -11.35663248	   -177.19646050	      1.08957593	      0.81112869	     -0.04533108	      4.06345895	     15.18448511	     10.42992780	    -58.97904734	     54.95151458	     20.37445810	     -0.91498056	   -101.22489870	     -5.91262909	   -267.21973778	    102.28864983	     -8.69356608	   -109.76395512	   -161.68138229	     -5.22700474	    -21.32709542	     57.57466312	     40.43081009	    -89.15673064	    141.72459640	     20.48243013	     13.36606897	      0.03168844	    -14.72140277	     92.63170923	   -167.62475632	     71.10101097	     14.45303050	    -68.03076333	      0.00000000	      0.00000000	     95.88396264	     -5.11161952	     71.16822237	     29.87107186	   -776.51656683	      0.00000000	      0.00000000
      0.02500000	    -88.61115310	    -11.35497692	   -177.19663234	      1.08961314	      0.81111121	     -0.04534497	      4.06150337	     15.18390295	     10.42913846	    -58.97775795	     54.95199700	     20.37329533	     -0.91547952	   -101.22506891	     -5.91263366	   -267.22096929	    102.28879467	     -8.69421569	   -109.76445137	   -161.68108023	     -5.22844638	    -21.32783119	     57.57319119	     40.43087085	    -89.15676954	    141.72478561	     20.48262920	     13.36584036	      0.03177667	    -14.72159218	     92.63214640	   -167.62435558	     71.10161080	     14.45337250	    -68.03066372	      0.00000000	      0.00000000	     95.88410729	     -5.11136409	     71.16719332	     29.87113299	   -776.51649514	      0.00000000	      0.00000000
      0.02777778	    -88.61160928	    -11.35398657	   -177.19700900	      1.08963044	      0.81109394	     -0.04537056	      4.05991887	     15.18380753	     10.42822521	    -58.97643375	     54.95246180	     20.37217806	     -0.91601432	   -101.22521924	     -5.91264225	   -267.22214389	    102.28896077	     -8.69492750	   -109.76493502	   -161.68075076	     -5.22983152	    -21.32858624	     57.57172360	     40.43095502	    -89.15687264	    141.72501683	     20.48281467	     13.36564829	      0.03190260	    -14.72176374	     92.63258194	   -167.62398790	     71.10211784	     14.45370233	    -68.03057624	      0.00000000	      0.00000000	     95.88429279	     -5.11115174	     71.16624616	     29.87121379	   -776.51643041	      0.00000000	      0.00000000
